<svg xmlns="http://www.w3.org/2000/svg" viewBox="0 0 365 354">
  <style>
    .shp0{fill:#fff}
  </style>
  <g id="Layer">
    <path id="Layer" fill-rule="evenodd" d="M292.7 296a212.2 212.2 0 01-284-1 20 20 0 010-29.7l285-255a20 20 0 0129.7 3.4A212.2 212.2 0 01292.7 296zM316 110.8a38.6 38.6 0 10-77.3 0 38.6 38.6 0 0077.3 0z" class="shp0"/>
  </g>
  <g id="Layer">
    <path id="Layer" d="M464.9 184.6a66.1 66.1 0 0128.7 21.5c6.4 9 9.7 19.6 9.7 31.8 0 18-5.6 32.4-17 43.4a62.7 62.7 0 01-45.4 16.6 62.2 62.2 0 01-38.6-11.8 58.2 58.2 0 01-21.1-33.5l21-10.4a52.4 52.4 0 0014.1 26.9c6.6 6 14.7 9 24.6 9 11.6 0 21-3.4 28.2-10a34.2 34.2 0 0010.8-26.3c0-8.7-2.6-16.2-7.6-22.7a57.2 57.2 0 00-22.7-16.2l-23.8-10.1a67.4 67.4 0 01-29-20.9 49.8 49.8 0 01-9.5-30.6c0-13.9 5-25.3 15.4-34.4A57.5 57.5 0 01442 93.2c11.7 0 21.8 2.5 30.4 7.5 8.6 5 15.3 12.2 20.1 22l-19.2 12.2a50.2 50.2 0 00-14.6-16.8 32 32 0 00-18.4-5.5c-8.7 0-15.9 2.7-21.4 8a27 27 0 00-8.3 20.4c0 7 2.2 13 6.4 18 4.3 5 11 9.5 19.9 13.4l27.9 12.2zM534.3 292.8l-.3-195 102.8-.2v21.2h-79.6v56H637v21.5l-79.7.1.2 74.7H637v21.5l-102.8.2zM676.4 292.5l-.3-195 102.9-.2v21.2l-79.7.2.1 56 79.7-.2V196h-79.6V271l79.7-.1v21.6l-102.8.1zM889.6 132.6l.2 159.6H848l-.3-159.5h-47.6l-.1-35.4 137.2-.2v35.4l-47.6.1z" class="shp0"/>
    <path id="Layer" fill-rule="evenodd" d="M1105.9 291.8l-48 .1-51.5-91 .1 91.1h-41.7l-.3-195h59.7c23.7 0 41.5 4.5 53.3 13.7 11.8 9.1 17.8 23 17.8 41.4 0 13.4-4 24.9-12 34.4-8.2 9.5-18.6 15-31.4 16.7l54 88.6zm-99.6-111.7h6.3c16.9 0 28-1.9 33.4-5.6 5.4-3.7 8.1-10 8.1-19.2 0-9.6-3-16.4-8.7-20.5-5.9-4-16.8-6-32.9-6h-6.3l.1 51.3z" class="shp0"/>
    <path id="Layer" d="M1297.5 96.5l.2 121.4c0 26.4-6.9 46.2-20.8 59.3-14 13-34.9 19.6-63 19.7-28.5 0-49.7-6.5-63.7-19.5s-21-32.8-21-59.3l-.2-121.3h41.5l.2 114.7c0 16.1 3.5 28.2 10.7 36.3 7 8.1 17.7 12.2 31.8 12.1 14.2 0 25-4 32.2-12.3 7.3-8.1 11-20.2 10.9-36.2l-.2-114.8h41.4zM1328.5 266.7l23-26.3c3 7.2 7.8 12.9 14.2 17a39.8 39.8 0 0021.9 6.1c9.8 0 17.5-2.3 23.2-7a22.8 22.8 0 008.5-18.6c0-9.2-9.5-18.4-28.5-27.5-6-3-11-5.3-14.5-7.2-17-8.8-28.9-17.5-35.5-26a48 48 0 01-9.9-30.3c0-16 6.3-29.2 19-39.6a76.2 76.2 0 0149.7-15.6c11.8 0 22 2 30.6 6.1a62.1 62.1 0 0122.7 19.4l-24.6 23.6c-3-5.7-6.8-10-11.7-12.7a34.5 34.5 0 00-17.5-4.2c-8.3 0-15 2.1-20 6.3-5 4-7.6 9.4-7.5 16 0 10.3 10 19.7 30.1 28.2l9.2 4c16.5 7.5 28.8 16 36.7 25.5 8 9.5 12 20.3 12 32.5 0 18.3-6.2 32.9-18.6 43.8-12.5 10.9-29.2 16.3-50.3 16.4-14.9 0-27.7-2.6-38.4-7.7a51.9 51.9 0 01-23.8-22.2z" class="shp0"/>
  </g>
</svg>
